<?xml version="1.0" encoding="utf-8"?>
<!-- Generator: Adobe Illustrator 15.0.0, SVG Export Plug-In . SVG Version: 6.00 Build 0)  -->
<!DOCTYPE svg PUBLIC "-//W3C//DTD SVG 1.1//EN" "http://www.w3.org/Graphics/SVG/1.1/DTD/svg11.dtd">
<svg version="1.1" id="Layer_1" xmlns="http://www.w3.org/2000/svg" xmlns:xlink="http://www.w3.org/1999/xlink" x="0px" y="0px"
	 viewBox="0 0 262.349 262.349" enable-background="new 0 0 262.349 262.349"
	 xml:space="preserve">
<g id="c3_icon">
	<g>
		<path fill-rule="evenodd" clip-rule="evenodd" fill="#29B7EB" d="M131.172,0C58.73,0,0,58.729,0,131.171
			c0,72.448,58.73,131.177,131.172,131.177c72.448,0,131.177-58.729,131.177-131.177C262.349,58.729,203.62,0,131.172,0z
			 M215.249,177.134H50.943c-16.088,0-29.131-13.044-29.131-29.126c0-14.467,10.554-26.44,24.373-28.714
			c-0.087-0.657-0.168-1.333-0.168-2.029c0-33.642,27.271-60.913,60.916-60.913c24.934,0,46.369,14.988,55.793,36.45
			c4.766-3.021,10.405-4.799,16.466-4.799c17.049,0,30.869,13.829,30.869,30.872h5.188c16.094,0,29.133,13.043,29.133,29.133
			C244.382,164.09,231.343,177.134,215.249,177.134z M205.655,141.625c-3.127,0-5.803,1.822-7.102,4.443l-79.23-31.207
			c0.806-1.385,1.456-2.866,1.913-4.438l50.794,8.006c0.775,3.581,3.954,6.267,7.768,6.267c4.396,0,7.955-3.562,7.955-7.954
			s-3.559-7.955-7.955-7.955c-3.439,0-6.342,2.19-7.453,5.243l-50.374-7.942c0.025-0.399,0.061-0.792,0.061-1.191
			c0-10.937-8.862-19.799-19.799-19.799c-10.938,0-19.8,8.862-19.8,19.799c0,4.94,1.819,9.442,4.812,12.914l-25.79,25.924
			c-1.417-1.301-3.292-2.111-5.365-2.111c-4.386,0-7.948,3.562-7.948,7.954c0,4.399,3.562,7.954,7.948,7.954
			c4.396,0,7.962-3.555,7.962-7.954c0-0.825-0.166-1.604-0.396-2.352l26.514-26.652c3.343,2.577,7.517,4.122,12.064,4.122
			c5.604,0,10.653-2.338,14.254-6.08l81.323,32.031c0.528,3.885,3.817,6.885,7.846,6.885c4.39,0,7.955-3.555,7.955-7.954
			C213.61,145.187,210.045,141.625,205.655,141.625z"/>
	</g>
</g>
</svg>
