<?xml version="1.0" encoding="utf-8"?>
<!-- Generator: Adobe Illustrator 15.0.0, SVG Export Plug-In . SVG Version: 6.00 Build 0)  -->
<!DOCTYPE svg PUBLIC "-//W3C//DTD SVG 1.1//EN" "http://www.w3.org/Graphics/SVG/1.1/DTD/svg11.dtd">
<svg version="1.1" id="Layer_1" xmlns="http://www.w3.org/2000/svg" xmlns:xlink="http://www.w3.org/1999/xlink" x="0px" y="0px"
	 width="612px" height="612.019px" viewBox="0 0 612 612.019" enable-background="new 0 0 612 612.019" xml:space="preserve">
<g>
	<path fill="#26B7EB" d="M305.991,0C137.002,0,0,137.008,0,306.001c0,169.006,137.002,306.018,305.991,306.018
		C474.999,612.019,612,475.007,612,306.001C612,137.008,474.999,0,305.991,0"/>
</g>
<g>
	<g>
		<g>
			<path fill="#FFFFFF" d="M486.301,190.009c0,11-9,20-20,20H145.699c-11,0-20-9-20-20v-43c0-11,9-20,20-20h320.602c11,0,20,9,20,20
				V190.009z"/>
			<path fill="none" stroke="#FFFFFF" stroke-miterlimit="10" d="M486.301,190.009c0,11-9,20-20,20H145.699c-11,0-20-9-20-20v-43
				c0-11,9-20,20-20h320.602c11,0,20,9,20,20V190.009z"/>
		</g>
		<g>
			<g>
				<path fill="#26B7EB" d="M396.976,169.259c0,11-9,20-20,20H174.175c-11,0-20-9-20-20v-1.5c0-11,9-20,20-20h202.801
					c11,0,20,9,20,20V169.259z"/>
			</g>
			<g>
				<path fill="#26B7EB" d="M457.825,169.259c0,11-9,20-20,20h-1.5c-11,0-20-9-20-20v-1.5c0-11,9-20,20-20h1.5c11,0,20,9,20,20
					V169.259z"/>
			</g>
		</g>
	</g>
	<g>
		<g>
			<path fill="#FFFFFF" d="M486.301,281.676c0,11-9,20-20,20H145.699c-11,0-20-9-20-20v-43c0-11,9-20,20-20h320.602c11,0,20,9,20,20
				V281.676z"/>
			<path fill="none" stroke="#FFFFFF" stroke-miterlimit="10" d="M486.301,281.676c0,11-9,20-20,20H145.699c-11,0-20-9-20-20v-43
				c0-11,9-20,20-20h320.602c11,0,20,9,20,20V281.676z"/>
		</g>
		<g>
			<g>
				<path fill="#26B7EB" d="M396.976,260.926c0,11-9,20-20,20H174.175c-11,0-20-9-20-20v-1.5c0-11,9-20,20-20h202.801
					c11,0,20,9,20,20V260.926z"/>
			</g>
			<g>
				<path fill="#26B7EB" d="M457.825,260.926c0,11-9,20-20,20h-1.5c-11,0-20-9-20-20v-1.5c0-11,9-20,20-20h1.5c11,0,20,9,20,20
					V260.926z"/>
			</g>
		</g>
	</g>
	<g>
		<g>
			<path fill="#FFFFFF" d="M486.301,373.342c0,11-9,20-20,20H145.699c-11,0-20-9-20-20v-43c0-11,9-20,20-20h320.602c11,0,20,9,20,20
				V373.342z"/>
			<path fill="none" stroke="#FFFFFF" stroke-miterlimit="10" d="M486.301,373.342c0,11-9,20-20,20H145.699c-11,0-20-9-20-20v-43
				c0-11,9-20,20-20h320.602c11,0,20,9,20,20V373.342z"/>
		</g>
		<g>
			<g>
				<path fill="#26B7EB" d="M396.976,352.592c0,11-9,20-20,20H174.175c-11,0-20-9-20-20v-1.5c0-11,9-20,20-20h202.801
					c11,0,20,9,20,20V352.592z"/>
			</g>
			<g>
				<path fill="#26B7EB" d="M457.825,352.592c0,11-9,20-20,20h-1.5c-11,0-20-9-20-20v-1.5c0-11,9-20,20-20h1.5c11,0,20,9,20,20
					V352.592z"/>
			</g>
		</g>
	</g>
	<g>
		<g>
			<path fill="#FFFFFF" d="M486.301,465.009c0,11-9,20-20,20H145.699c-11,0-20-9-20-20v-43c0-11,9-20,20-20h320.602c11,0,20,9,20,20
				V465.009z"/>
			<path fill="none" stroke="#FFFFFF" stroke-miterlimit="10" d="M486.301,465.009c0,11-9,20-20,20H145.699c-11,0-20-9-20-20v-43
				c0-11,9-20,20-20h320.602c11,0,20,9,20,20V465.009z"/>
		</g>
		<g>
			<g>
				<path fill="#26B7EB" d="M396.976,444.259c0,11-9,20-20,20H174.175c-11,0-20-9-20-20v-1.5c0-11,9-20,20-20h202.801
					c11,0,20,9,20,20V444.259z"/>
			</g>
			<g>
				<path fill="#26B7EB" d="M457.825,444.259c0,11-9,20-20,20h-1.5c-11,0-20-9-20-20v-1.5c0-11,9-20,20-20h1.5c11,0,20,9,20,20
					V444.259z"/>
			</g>
		</g>
	</g>
</g>
</svg>
