<?xml version="1.0" encoding="utf-8"?>
<!-- Generator: Adobe Illustrator 15.0.0, SVG Export Plug-In . SVG Version: 6.00 Build 0)  -->
<!DOCTYPE svg PUBLIC "-//W3C//DTD SVG 1.1//EN" "http://www.w3.org/Graphics/SVG/1.1/DTD/svg11.dtd">
<svg version="1.1" id="Layer_1" xmlns="http://www.w3.org/2000/svg" xmlns:xlink="http://www.w3.org/1999/xlink" x="0px" y="0px"
	 viewBox="0 0 200 200" enable-background="new 0 0 200 200" xml:space="preserve">
<path fill="#26B7EB" d="M99.997,0C44.773,0,0.003,44.772,0.003,99.997C0.003,155.227,44.773,200,99.997,200
	c55.229,0,100-44.773,100-100.003C199.997,44.772,155.227,0,99.997,0 M68.099,119.018l-0.015,14.137l-52.1-26.743l0.195-10.254
	l52.097-24.3l-0.19,13.973l-33.867,15.8L68.099,119.018z M91.733,140.762l-11.589-4.893l31.404-74.356l11.586,4.895L91.733,140.762z
	 M131.934,133.119l-0.322-13.979l34.117-17.511c-9.15-4.271-32.989-15.39-32.989-15.39l-1.108-0.518l0.104-13.836l52.029,24.271
	l0.192,10.254L131.934,133.119z"/>
</svg>
