<?xml version="1.0" encoding="utf-8"?>
<!-- Generator: Adobe Illustrator 15.0.0, SVG Export Plug-In . SVG Version: 6.00 Build 0)  -->
<!DOCTYPE svg PUBLIC "-//W3C//DTD SVG 1.1//EN" "http://www.w3.org/Graphics/SVG/1.1/DTD/svg11.dtd">
<svg version="1.1" id="Layer_1" xmlns="http://www.w3.org/2000/svg" xmlns:xlink="http://www.w3.org/1999/xlink" x="0px" y="0px"
	 viewBox="0 0 200 200" enable-background="new 0 0 200 200" xml:space="preserve">
<path fill="#26B7EB" d="M99.997,0C44.773,0,0.003,44.772,0.003,99.997C0.003,155.227,44.773,200,99.997,200
	c55.229,0,100-44.773,100-100.003C199.997,44.772,155.227,0,99.997,0"/>
<g>
	<path fill="#FFFFFF" d="M50,80v-6.668l50.001-19.999L150,73.332V80h-6.666c0,0.903-0.357,1.685-1.068,2.343
		c-0.711,0.66-1.553,0.99-2.524,0.99H60.262c-0.974,0-1.815-0.33-2.526-0.99c-0.713-0.658-1.068-1.439-1.068-2.343H50z M50,139.999
		c0-0.902,0.355-1.684,1.068-2.344c0.711-0.66,1.554-0.988,2.525-0.988h92.813c0.972,0,1.814,0.328,2.525,0.988
		c0.712,0.66,1.067,1.441,1.067,2.344v6.668H50V139.999z M56.667,133.333v-3.334c0-0.902,0.355-1.682,1.068-2.342
		c0.711-0.66,1.553-0.99,2.526-0.99h3.071V86.666h13.335v40.001h6.666V86.666h13.333v40.001h6.667V86.666h13.333v40.001h6.668
		V86.666h13.333v40.001h3.073c0.972,0,1.813,0.33,2.524,0.99s1.068,1.439,1.068,2.342v3.334H56.667z"/>
</g>
</svg>
