<?xml version="1.0" encoding="utf-8"?>
<!-- Generator: Adobe Illustrator 15.0.0, SVG Export Plug-In . SVG Version: 6.00 Build 0)  -->
<!DOCTYPE svg PUBLIC "-//W3C//DTD SVG 1.1//EN" "http://www.w3.org/Graphics/SVG/1.1/DTD/svg11.dtd">
<svg version="1.1" id="Layer_1" xmlns="http://www.w3.org/2000/svg" xmlns:xlink="http://www.w3.org/1999/xlink" x="0px" y="0px"
	 width="612px" height="612.019px" viewBox="0 0 612 612.019" enable-background="new 0 0 612 612.019" xml:space="preserve">
<g>
	<path fill="#26B7EB" d="M305.991,0C137.002,0,0,137.008,0,306.001c0,169.006,137.002,306.018,305.991,306.018
		C474.999,612.019,612,475.007,612,306.001C612,137.008,474.999,0,305.991,0"/>
</g>
<g enable-background="new    ">
	<path fill="#FFFFFF" d="M403.668,305.992c0,4.075-1.488,7.603-4.467,10.58L271.498,444.275c-2.979,2.979-6.505,4.485-10.58,4.485
		c-4.057,0-7.583-1.506-10.562-4.485c-2.979-2.944-4.45-6.47-4.45-10.545v-67.617H140.73c-4.075,0-7.601-1.507-10.562-4.45
		c-2.979-2.979-4.469-6.506-4.469-10.579v-90.147c0-4.073,1.489-7.6,4.469-10.578c2.961-2.944,6.486-4.451,10.562-4.451h105.176
		v-67.616c0-4.075,1.471-7.603,4.45-10.545c2.979-2.979,6.505-4.485,10.562-4.485c4.075,0,7.601,1.506,10.58,4.485l127.703,127.701
		C402.18,298.426,403.668,301.954,403.668,305.992z M486.3,223.379v165.262c0,18.625-6.608,34.545-19.841,47.794
		c-13.215,13.214-29.153,19.823-47.778,19.823h-75.114c-2.038,0-3.801-0.753-5.29-2.228c-1.489-1.506-2.226-3.25-2.226-5.271
		c0-0.651-0.086-2.19-0.239-4.726c-0.153-2.499-0.189-4.553-0.121-6.196c0.086-1.643,0.326-3.491,0.721-5.512
		c0.376-2.054,1.163-3.561,2.345-4.589c1.164-1.026,2.772-1.54,4.811-1.54h75.114c10.34,0,19.173-3.663,26.535-11.023
		c7.359-7.36,11.04-16.194,11.04-26.533V223.379c0-10.34-3.681-19.173-11.04-26.534c-7.362-7.36-16.195-11.023-26.535-11.023h-67.6
		c-0.172,0-1.027,0-2.585,0c-1.575,0-2.586,0-3.047,0c-0.479,0-1.389-0.103-2.706-0.239c-1.334-0.171-2.224-0.411-2.703-0.719
		c-0.463-0.309-1.096-0.72-1.884-1.303c-0.771-0.548-1.318-1.232-1.644-2.087c-0.307-0.855-0.462-1.918-0.462-3.184
		c0-0.618-0.086-2.191-0.239-4.691s-0.189-4.588-0.121-6.23c0.086-1.644,0.326-3.458,0.721-5.512
		c0.376-2.021,1.163-3.562,2.345-4.59c1.164-0.992,2.772-1.506,4.811-1.506h75.114c18.625,0,34.563,6.608,47.778,19.824
		C479.691,188.835,486.3,204.754,486.3,223.379z"/>
</g>
</svg>
