<?xml version="1.0" encoding="utf-8"?>
<!-- Generator: Adobe Illustrator 15.0.0, SVG Export Plug-In . SVG Version: 6.00 Build 0)  -->
<!DOCTYPE svg PUBLIC "-//W3C//DTD SVG 1.1//EN" "http://www.w3.org/Graphics/SVG/1.1/DTD/svg11.dtd">
<svg version="1.1" id="Layer_1" xmlns="http://www.w3.org/2000/svg" xmlns:xlink="http://www.w3.org/1999/xlink" x="0px" y="0px"
	 viewBox="0 0 626.328 626.347" enable-background="new 0 0 626.328 626.347"
	 xml:space="preserve">
<g>
	<path fill="#26B7EB" d="M313.155,0C140.21,0,0,140.216,0,313.164c0,172.964,140.21,313.183,313.155,313.183
		c172.965,0,313.173-140.219,313.173-313.183C626.328,140.216,486.12,0,313.155,0"/>
</g>
<g>
	<g>
		<path fill="#FFFFFF" stroke="#26B7EB" stroke-width="10" stroke-miterlimit="10" d="M291.358,426.765
			c-13.268,7.158-16.368,23.389-14.895,37.223c1.654,15.531,8.047,27.77,17.255,40.121c2.698,3.619,17.827,29.254,22.066,29.254
			c13.701-18.148,32.282-34.559,37.459-57.621c3.708-16.521,4.441-39.547-13.036-48.977"/>
		<path fill="#26B7EB" stroke="#26B7EB" stroke-miterlimit="10" d="M294.228,426.765c-13.967,7.76-6.878,27.244-1.104,37.875
			c3.383,6.229,7.924,11.807,12.105,17.502c1.129,1.539,8.172,13.855,10.154,13.855c8.723-11.895,47.116-54.809,21.153-69.232"/>
	</g>
	<g>
		<path fill="#FFFFFF" d="M198.619,415.802c-27.5,0-38.75-19.485-25-43.301l114.545-198.398c13.75-23.816,36.25-23.816,50,0
			l114.545,198.398c13.75,23.815,2.5,43.301-25,43.301H198.619z"/>
		<path fill="none" stroke="#26B7EB" stroke-width="10" stroke-miterlimit="10" d="M198.619,415.802c-27.5,0-38.75-19.485-25-43.301
			l114.545-198.398c13.75-23.816,36.25-23.816,50,0l114.545,198.398c13.75,23.815,2.5,43.301-25,43.301H198.619z"/>
	</g>
	<path fill="#FFFFFF" stroke="#26B7EB" stroke-width="10" stroke-miterlimit="10" d="M394.574,292.021
		c0,39.34-8.109,75.16-21.41,102.02c-7.399,14.971-16.42,27.16-26.529,35.631c-9.83,2.379-21.26,3.75-33.47,3.75
		c-12.211,0-23.641-1.371-33.471-3.75c-10.109-8.471-19.129-20.66-26.529-35.631c-13.301-26.859-21.41-62.68-21.41-102.02
		c0-29.85,4.67-57.67,12.74-81.09c5.699-16.59,13.109-30.979,21.77-42.31h93.8c8.66,11.33,16.07,25.72,21.771,42.31
		C389.904,234.351,394.574,262.171,394.574,292.021z"/>
	<path stroke="#26B7EB" stroke-width="10" stroke-miterlimit="10" d="M346.635,429.953c-10.21,8.551-21.54,13.311-33.47,13.311
		s-23.26-4.76-33.471-13.311c9.83,2.381,21.26,3.75,33.471,3.75C325.375,433.703,336.805,432.333,346.635,429.953z"/>
	<path fill="#FFFFFF" stroke="#26B7EB" stroke-width="10" stroke-miterlimit="10" d="M360.064,168.622h-93.8
		c13.26-17.36,29.44-75.638,46.9-75.638S346.805,151.261,360.064,168.622z"/>
	<circle fill="#FFFFFF" stroke="#26B7EB" stroke-width="10" stroke-miterlimit="10" cx="313.164" cy="252.217" r="32.099"/>
</g>
</svg>
