<?xml version="1.0" encoding="utf-8"?>
<!-- Generator: Adobe Illustrator 15.0.0, SVG Export Plug-In . SVG Version: 6.00 Build 0)  -->
<!DOCTYPE svg PUBLIC "-//W3C//DTD SVG 1.1//EN" "http://www.w3.org/Graphics/SVG/1.1/DTD/svg11.dtd">
<svg version="1.1" id="Layer_1" xmlns="http://www.w3.org/2000/svg" xmlns:xlink="http://www.w3.org/1999/xlink" x="0px" y="0px"
	 viewBox="0 0 200 200" enable-background="new 0 0 200 200" xml:space="preserve">
<path fill="#26B7EB" d="M99.997,0C44.773,0,0.003,44.772,0.003,99.997C0.003,155.227,44.773,200,99.997,200
	c55.229,0,100-44.773,100-100.003C199.997,44.772,155.227,0,99.997,0"/>
<g>
	<path fill="#FFFFFF" d="M50.061,135.697c0-2.15,0.771-3.997,2.312-5.539L93.822,88.71c1.582,3.978,3.905,7.497,6.97,10.56
		c3.062,3.065,6.583,5.386,10.56,6.969l-41.511,41.51c-1.5,1.502-3.327,2.251-5.477,2.251c-2.111,0-3.957-0.749-5.539-2.251
		l-6.452-6.574C50.831,139.716,50.061,137.889,50.061,135.697z M65.521,129.063c-0.771,0.771-1.156,1.685-1.156,2.739
		s0.385,1.968,1.156,2.737c0.771,0.771,1.684,1.157,2.739,1.157c1.054,0,1.967-0.386,2.738-1.157
		c0.771-0.77,1.157-1.683,1.157-2.737s-0.387-1.968-1.157-2.739c-0.771-0.771-1.685-1.156-2.738-1.156
		C67.204,127.907,66.291,128.292,65.521,129.063z M103.53,96.531c-5.336-5.335-8.004-11.757-8.004-19.264
		c0-7.506,2.668-13.928,8.004-19.264C108.865,52.668,115.288,50,122.795,50c2.351,0,4.815,0.335,7.394,1.004
		c2.577,0.669,4.756,1.613,6.544,2.83c0.647,0.446,0.973,1.015,0.973,1.704c0,0.69-0.325,1.258-0.973,1.704l-17.834,10.286v13.633
		l11.747,6.513c0.202-0.122,1.806-1.104,4.81-2.952c3-1.846,5.751-3.489,8.247-4.93c2.495-1.44,3.923-2.16,4.288-2.16
		c0.609,0,1.088,0.203,1.432,0.608c0.345,0.406,0.518,0.913,0.518,1.522c0,1.582-0.466,3.733-1.399,6.452
		c-1.908,5.437-5.244,9.85-10.013,13.237c-4.769,3.39-10.013,5.083-15.732,5.083C115.288,104.535,108.865,101.867,103.53,96.531z"/>
</g>
</svg>
